/* XPM */
static char *c29d92604e6d4ddff63cfe2f84a01b67lfioom54Fy9Yugnh[] = {
/* columns rows colors chars-per-pixel */
"16 16 12 1 ",
"  c None",
". c #F3F4E7",
"X c #5F7A79",
"o c #754C60",
"O c #82A884",
"+ c #6E967C",
"@ c #A35B70",
"# c #BD757E",
"$ c #AF6776",
"% c #D99A9A",
"& c #8A4A70",
"* c white",
/* pixels */
"                ",
"          ....  ",
"      ....XXX.  ",
"      .o.XOOX.  ",
"    ...oX++OX.  ",
"   .@@@oXXXX.   ",
"  .@###@@$$@.   ",
" .@#%###$$$$@.  ",
" .@###%#$$$$&.  ",
" .@#####$$$$&.  ",
" .&####$$$$$&.  ",
"  .&$$$$$$$&.   ",
"   .&$$&$$&.    ",
"    .&&.&&.     ",
"     .. ..      ",
"                "
};
