/* XPM */
static char *_df59b586b4547b5f971aacca951c74b12J2skddyqzvZAQp[] = {
/* columns rows colors chars-per-pixel */
"16 16 46 1 ",
"  c None",
". c #714B62",
"X c #885C5E",
"o c #90625D",
"O c #97695C",
"+ c #815961",
"@ c #8D6664",
"# c #916661",
"$ c #936963",
"% c #996F63",
"& c #A67B6A",
"* c #A67F6C",
"= c #A87F6C",
"- c #7E9C5E",
"; c #8E8F5D",
": c #80955E",
"> c #8EB15D",
", c #8FB25F",
"< c #AC8064",
"1 c #AC8164",
"2 c #AD8469",
"3 c #AE846F",
"4 c #B28563",
"5 c #B28766",
"6 c #B38866",
"7 c #BD9167",
"8 c #BE9368",
"9 c #BC9370",
"0 c #9BAD68",
"q c #9CAD69",
"w c #95B760",
"e c #9DBC63",
"r c #ABB065",
"t c #B4A270",
"y c #B5A271",
"u c #BFB27C",
"i c #C09569",
"p c #C49A6C",
"a c #C6A07D",
"s c #C6B27D",
"d c #A2C063",
"f c #A5C264",
"g c #A6C266",
"h c #D9BD98",
"j c #E3C69A",
"k c #E9D2AA",
/* pixels */
"      3aa3      ",
"   3au0ee0ua3   ",
"  sqwf,ff,fwqs  ",
"  :,df,ff,fd,:  ",
"  -,drthhtrd,-  ",
"  ;thkjaajkht;  ",
"  kja&oooo&ajk  ",
"  =6777777776*  ",
"   7777777777   ",
"   <X<4$$4<X<   ",
"   <9<#oo#<9<   ",
"   ppp$OO$ppp   ",
"   .% +ii+ %.   ",
"    2  88  2    ",
"    @  ii  @    ",
"       55       "
};
