/* XPM */
static char *_09b2adb07e74719ba2b1fe8cc876a4aqfat5l5TXHaYsVLX[] = {
/* columns rows colors chars-per-pixel */
"16 16 13 1 ",
"  c black",
". c None",
"X c #BD757E",
"o c #AF6776",
"O c #F3D8C5",
"+ c #E8B5AC",
"@ c #67835C",
"# c #C0D470",
"$ c #D99A9A",
"% c #8DB15D",
"& c #78A158",
"* c #566560",
"= c white",
/* pixels */
"                ",
"                ",
"                ",
"                ",
"     XXXXo      ",
"    XOO+++o     ",
"    X+XXX+o     ",
"  @@o+++++o@@   ",
"  @##o$$$o##@   ",
"  @#%%%&%%%#@   ",
"  .@@%%@%%@@.   ",
"   ..**.**..    ",
"     .. ..      ",
"                ",
"                ",
"                "
};
